<?xml version="1.0" encoding="utf-8"?>
<!-- Generator: Adobe Illustrator 19.2.1, SVG Export Plug-In . SVG Version: 6.00 Build 0)  -->
<svg version="1.1" id="Layer_1" xmlns="http://www.w3.org/2000/svg" xmlns:xlink="http://www.w3.org/1999/xlink" x="0px" y="0px"
	 viewBox="0 0 6.5 14" style="enable-background:new 0 0 6.5 14;" xml:space="preserve">
<style type="text/css">
	.st0{fill:#AFAEB7;}
</style>
<path class="st0" d="M6.3,10.4c0-0.1-0.1-0.2-0.2-0.2H4.3V0.4c0-0.1,0-0.1-0.1-0.2c0,0-0.1-0.1-0.2-0.1H2.5c-0.1,0-0.1,0-0.2,0.1
	c0,0-0.1,0.1-0.1,0.2v9.9H0.5c-0.1,0-0.2,0.1-0.2,0.2c0,0.1,0,0.2,0,0.3l2.8,3c0.1,0.1,0.1,0.1,0.2,0.1c0.1,0,0.1,0,0.2-0.1l2.8-3
	C6.3,10.6,6.3,10.5,6.3,10.4z"/>
</svg>
