<?xml version="1.0" encoding="utf-8"?>
<svg version="1.1" xmlns="http://www.w3.org/2000/svg" viewBox="-1 0 29 31">
  <g>
    <polygon fill="#2DA2BF" points="11.8,12.8 16.2,12.8 14,17.1 18.1,15.7 12.9,26.6 14.2,19.7 9.9,19.7"/>
    <path fill="#2DA2BF" d="M26.4,5.6C26,5.2,25.5,5,24.9,5h-2.1V3.4c0-0.7-0.3-1.3-0.8-1.8c-0.5-0.5-1.1-0.8-1.8-0.8h-1
      c-0.7,0-1.3,0.3-1.8,0.8c-0.5,0.5-0.8,1.1-0.8,1.8V5h-6.2V3.4c0-0.7-0.3-1.3-0.8-1.8S8.5,0.8,7.8,0.8h-1C6,0.8,5.4,1.1,4.9,1.6
      S4.2,2.7,4.2,3.4V5H2.1C1.5,5,1,5.2,0.6,5.6S0,6.5,0,7v20.8c0,0.6,0.2,1,0.6,1.5c0.4,0.4,0.9,0.6,1.5,0.6h22.8c0.6,0,1-0.2,1.5-0.6
      c0.4-0.4,0.6-0.9,0.6-1.5V7C27,6.5,26.8,6,26.4,5.6z M18.7,3.4c0-0.2,0-0.3,0.1-0.4c0.1-0.1,0.2-0.1,0.4-0.1h1c0.2,0,0.3,0,0.4,0.1
      c0.1,0.1,0.1,0.2,0.1,0.4v4.7c0,0.2,0,0.3-0.1,0.4c-0.1,0.1-0.2,0.1-0.4,0.1h-1c-0.2,0-0.3,0-0.4-0.1c-0.1-0.1-0.1-0.2-0.1-0.4V3.4
      z M6.2,3.4c0-0.2,0-0.3,0.1-0.4c0.1-0.1,0.2-0.1,0.4-0.1h1c0.2,0,0.3,0,0.4,0.1c0.1,0.1,0.1,0.2,0.1,0.4v4.7c0,0.2,0,0.3-0.1,0.4
      C8.1,8.5,7.9,8.6,7.8,8.6h-1c-0.2,0-0.3,0-0.4-0.1C6.3,8.4,6.2,8.2,6.2,8.1V3.4z M24.9,27.8H2.1V11.2h22.8V27.8z"/>
  </g>
</svg>